# Blender 4.5.3 LTS
# www.blender.org
mtllib white_light.mtl
o cube
v 0.125000 0.187500 -0.000000
v 0.062500 0.250000 -0.000000
v 0.062500 0.250000 -0.062500
v 0.125000 0.187500 -0.062500
v 0.062500 0.000000 0.000000
v 0.125000 0.062500 -0.000000
v 0.125000 0.062500 -0.062500
v 0.062500 -0.000000 -0.062500
v -0.125000 0.187500 -0.062500
v -0.062500 0.250000 -0.062500
v -0.062500 0.250000 -0.000000
v -0.125000 0.187500 -0.000000
v -0.062500 -0.000000 -0.062500
v -0.125000 0.062500 -0.062500
v -0.125000 0.062500 -0.000000
v -0.062500 0.000000 0.000000
vn 0.7071 -0.7071 -0.0000
vn 0.7071 0.7071 -0.0000
vn -0.7071 -0.7071 -0.0000
vn -0.7071 0.7071 -0.0000
vn -0.0000 -0.0000 1.0000
vn 1.0000 -0.0000 -0.0000
vn -0.0000 1.0000 -0.0000
vn -0.0000 -0.0000 -1.0000
vn -0.0000 -1.0000 -0.0000
vn -1.0000 -0.0000 -0.0000
vt 0.751001 0.501001
vt 0.998999 0.748999
vt 0.998999 0.501001
vt 0.751001 0.251001
vt 0.998999 0.498999
vt 0.998999 0.251001
vt 0.501001 0.251001
vt 0.748999 0.498999
vt 0.748999 0.251001
vt 0.501001 0.001001
vt 0.748999 0.248999
vt 0.748999 0.001001
vt 0.374500 0.498999
vt 0.001001 0.374500
vt 0.125500 0.001001
vt 0.501001 0.501001
vt 0.748999 0.748999
vt 0.748999 0.501001
vt 0.751001 0.001001
vt 0.998999 0.248999
vt 0.998999 0.001001
vt 0.125501 0.501001
vt 0.498999 0.625501
vt 0.374499 0.998999
vt 0.501001 0.751001
vt 0.748999 0.998999
vt 0.748999 0.751001
vt 0.751001 0.751001
vt 0.998999 0.998999
vt 0.998999 0.751001
vt 0.751001 0.748999
vt 0.751001 0.498999
vt 0.501001 0.498999
vt 0.501001 0.248999
vt 0.374499 0.001001
vt 0.498999 0.125500
vt 0.498999 0.374499
vt 0.125501 0.498999
vt 0.001001 0.125501
vt 0.501001 0.748999
vt 0.751001 0.248999
vt 0.125501 0.998999
vt 0.001001 0.874499
vt 0.001001 0.625501
vt 0.374499 0.501001
vt 0.498999 0.874499
vt 0.501001 0.998999
vt 0.751001 0.998999
s 1
usemtl m_c586e5ee-26b2-60d0-3e99-3182e110551a
f 8/1/1 6/2/1 5/3/1
f 4/4/2 2/5/2 1/6/2
f 16/7/3 14/8/3 13/9/3
f 12/10/4 10/11/4 9/12/4
f 6/13/5 2/14/5 12/15/5
f 7/16/6 1/17/6 6/18/6
f 2/19/7 10/20/7 11/21/7
f 14/22/8 10/23/8 4/24/8
f 8/25/9 16/26/9 13/27/9
f 15/28/10 9/29/10 14/30/10
f 8/1/1 7/31/1 6/2/1
f 4/4/2 3/32/2 2/5/2
f 16/7/3 15/33/3 14/8/3
f 12/10/4 11/34/4 10/11/4
f 12/15/5 15/35/5 16/36/5
f 16/36/5 5/37/5 6/13/5
f 6/13/5 1/38/5 2/14/5
f 2/14/5 11/39/5 12/15/5
f 12/15/5 16/36/5 6/13/5
f 7/16/6 4/40/6 1/17/6
f 2/19/7 3/41/7 10/20/7
f 4/24/8 7/42/8 8/43/8
f 8/43/8 13/44/8 14/22/8
f 14/22/8 9/45/8 10/23/8
f 10/23/8 3/46/8 4/24/8
f 4/24/8 8/43/8 14/22/8
f 8/25/9 5/47/9 16/26/9
f 15/28/10 12/48/10 9/29/10